<svg width="107" height="107" viewBox="0 0 107 107" fill="none" xmlns="http://www.w3.org/2000/svg">
<path d="M21.3555 46.8116H12.4388C11.2564 46.8116 10.1224 47.2813 9.28628 48.1174C8.45018 48.9535 7.98047 50.0875 7.98047 51.2699C7.98047 52.4524 8.45018 53.5864 9.28628 54.4225C10.1224 55.2586 11.2564 55.7283 12.4388 55.7283H21.3555C22.5379 55.7283 23.6719 55.2586 24.508 54.4225C25.3441 53.5864 25.8138 52.4524 25.8138 51.2699C25.8138 50.0875 25.3441 48.9535 24.508 48.1174C23.6719 47.2813 22.5379 46.8116 21.3555 46.8116ZM96.1663 34.1499V33.8824C94.8889 32.3211 93.2749 31.0689 91.4451 30.2196C89.6153 29.3703 87.6171 28.946 85.6 28.9783H50.2455C46.9695 28.9489 43.7967 30.1228 41.3288 32.2774C39.0239 34.3084 37.5084 37.0867 37.0488 40.1241L33.1255 62.4158C32.7881 64.3409 32.8767 66.3165 33.3851 68.2036C33.8935 70.0908 34.8092 71.8436 36.068 73.3387C37.3201 74.8288 38.8824 76.0277 40.6458 76.8516C42.4092 77.6756 44.3312 78.1047 46.2775 78.1091H81.6767C84.8566 78.1572 87.9496 77.0706 90.4007 75.0443C92.8519 73.018 94.5008 70.1846 95.0517 67.0524L98.975 44.7608C99.284 42.8941 99.1935 40.9831 98.7093 39.154C98.2251 37.3249 97.3584 35.6193 96.1663 34.1499ZM83.9505 37.8949L68.7921 50.1999C67.8959 50.9223 66.755 51.27 65.6082 51.1702C64.4615 51.0705 63.3977 50.5311 62.6396 49.6649L52.2517 37.8949H83.9505ZM86.0905 65.4029C85.91 66.4497 85.3617 67.3976 84.5443 68.076C83.727 68.7544 82.6943 69.1187 81.6321 69.1033H46.2775C45.6301 69.0978 44.9916 68.9514 44.4065 68.6743C43.8213 68.3971 43.3036 67.9958 42.8892 67.4983C42.4738 67.0034 42.1709 66.4241 42.0016 65.8005C41.8322 65.177 41.8004 64.5241 41.9084 63.887L45.475 43.6908L55.9521 55.5499C58.2326 58.1419 61.427 59.7516 64.867 60.0425C68.3071 60.3333 71.7264 59.2827 74.4096 57.1104L89.7463 44.5824L86.0905 65.4029ZM25.8138 28.9783H12.4388C11.2564 28.9783 10.1224 29.448 9.28628 30.2841C8.45018 31.1202 7.98047 32.2542 7.98047 33.4366C7.98047 34.619 8.45018 35.753 9.28628 36.5891C10.1224 37.4252 11.2564 37.8949 12.4388 37.8949H25.8138C26.9962 37.8949 28.1302 37.4252 28.9663 36.5891C29.8024 35.753 30.2721 34.619 30.2721 33.4366C30.2721 32.2542 29.8024 31.1202 28.9663 30.2841C28.1302 29.448 26.9962 28.9783 25.8138 28.9783Z" fill="white"/>
</svg>
