<svg width="89" height="89" viewBox="0 0 89 89" fill="none" xmlns="http://www.w3.org/2000/svg">
<path d="M55.6254 20.0254C55.6254 22.9759 54.4533 25.8056 52.367 27.892C50.2806 29.9783 47.4509 31.1504 44.5004 31.1504C41.5499 31.1504 38.7202 29.9783 36.6338 27.892C34.5475 25.8056 33.3754 22.9759 33.3754 20.0254C33.3754 17.0749 34.5475 14.2452 36.6338 12.1588C38.7202 10.0725 41.5499 8.90039 44.5004 8.90039C47.4509 8.90039 50.2806 10.0725 52.367 12.1588C54.4533 14.2452 55.6254 17.0749 55.6254 20.0254ZM77.8754 22.2504C77.8754 24.6108 76.9377 26.8746 75.2686 28.5436C73.5996 30.2127 71.3358 31.1504 68.9754 31.1504C66.615 31.1504 64.3512 30.2127 62.6821 28.5436C61.0131 26.8746 60.0754 24.6108 60.0754 22.2504C60.0754 19.89 61.0131 17.6262 62.6821 15.9571C64.3512 14.2881 66.615 13.3504 68.9754 13.3504C71.3358 13.3504 73.5996 14.2881 75.2686 15.9571C76.9377 17.6262 77.8754 19.89 77.8754 22.2504ZM20.0254 31.1504C22.3858 31.1504 24.6496 30.2127 26.3186 28.5436C27.9877 26.8746 28.9254 24.6108 28.9254 22.2504C28.9254 19.89 27.9877 17.6262 26.3186 15.9571C24.6496 14.2881 22.3858 13.3504 20.0254 13.3504C17.665 13.3504 15.4012 14.2881 13.7321 15.9571C12.0631 17.6262 11.1254 19.89 11.1254 22.2504C11.1254 24.6108 12.0631 26.8746 13.7321 28.5436C15.4012 30.2127 17.665 31.1504 20.0254 31.1504ZM26.7004 41.1629C26.7004 38.0924 29.1924 35.6004 32.2629 35.6004H56.7379C58.0392 35.5998 59.2995 36.0554 60.2995 36.888C61.2996 37.7205 61.9761 38.8774 62.2114 40.1572C57.7897 40.5761 53.5654 42.1904 49.9911 44.827C46.4169 47.4635 43.6274 51.023 41.9218 55.1239C40.2161 59.2248 39.6585 63.7126 40.3088 68.1062C40.959 72.4998 42.7925 76.6337 45.6129 80.0648C43.1865 80.2167 40.7547 79.87 38.4674 79.046C36.1801 78.222 34.0859 76.9382 32.3139 75.2737C30.5418 73.6093 29.1295 71.5994 28.1641 69.3682C27.1986 67.1369 26.7005 64.7316 26.7004 62.3004V41.1629ZM66.7014 40.1438C71.77 40.5888 76.3935 42.5824 80.1004 45.644V41.1629C80.1004 38.0924 77.6084 35.6004 74.5379 35.6004H65.0638C65.9538 36.9265 66.5323 38.4751 66.697 40.1438M22.2504 41.1629C22.2504 39.1025 22.8734 37.1935 23.9369 35.6004H14.4629C11.3924 35.6004 8.90039 38.0924 8.90039 41.1629V57.8504C8.90018 59.7555 9.30774 61.6386 10.0957 63.3732C10.8836 65.1077 12.0337 66.6536 13.4686 67.9068C14.9035 69.16 16.59 70.0916 18.4148 70.639C20.2396 71.1863 22.1604 71.3368 24.0482 71.0802C22.8596 68.3059 22.248 65.3187 22.2504 62.3004V41.1629ZM84.5504 64.5254C84.5504 69.8364 82.4406 74.9298 78.6852 78.6852C74.9298 82.4406 69.8364 84.5504 64.5254 84.5504C59.2144 84.5504 54.121 82.4406 50.3656 78.6852C46.6102 74.9298 44.5004 69.8364 44.5004 64.5254C44.5004 59.2144 46.6102 54.121 50.3656 50.3656C54.121 46.6102 59.2144 44.5004 64.5254 44.5004C69.8364 44.5004 74.9298 46.6102 78.6852 50.3656C82.4406 54.121 84.5504 59.2144 84.5504 64.5254ZM66.7504 55.6254C66.7504 55.0353 66.516 54.4693 66.0987 54.0521C65.6814 53.6348 65.1155 53.4004 64.5254 53.4004C63.9353 53.4004 63.3693 53.6348 62.9521 54.0521C62.5348 54.4693 62.3004 55.0353 62.3004 55.6254V62.3004H55.6254C55.0353 62.3004 54.4693 62.5348 54.0521 62.9521C53.6348 63.3693 53.4004 63.9353 53.4004 64.5254C53.4004 65.1155 53.6348 65.6814 54.0521 66.0987C54.4693 66.516 55.0353 66.7504 55.6254 66.7504H62.3004V73.4254C62.3004 74.0155 62.5348 74.5814 62.9521 74.9987C63.3693 75.416 63.9353 75.6504 64.5254 75.6504C65.1155 75.6504 65.6814 75.416 66.0987 74.9987C66.516 74.5814 66.7504 74.0155 66.7504 73.4254V66.7504H73.4254C74.0155 66.7504 74.5814 66.516 74.9987 66.0987C75.416 65.6814 75.6504 65.1155 75.6504 64.5254C75.6504 63.9353 75.416 63.3693 74.9987 62.9521C74.5814 62.5348 74.0155 62.3004 73.4254 62.3004H66.7504V55.6254Z" fill="white"/>
</svg>
