<svg width="71" height="71" viewBox="0 0 71 71" fill="none" xmlns="http://www.w3.org/2000/svg">
<path d="M53.25 28.1042C53.2558 26.5531 52.7723 25.0397 51.8682 23.7793C50.9641 22.519 49.6854 21.5759 48.2143 21.0843C46.7432 20.5927 45.1545 20.5777 43.6743 21.0413C42.1941 21.505 40.8979 22.4237 39.97 23.6667H31.0329C29.9494 22.2678 28.3892 21.3165 26.6494 20.9939C24.9097 20.6713 23.112 21 21.5991 21.9174C20.0861 22.8349 18.9635 24.2768 18.4452 25.9686C17.9269 27.6604 18.0491 29.4838 18.7885 31.0912C19.528 32.6987 20.833 33.978 22.4548 34.6853C24.0767 35.3926 25.9021 35.4785 27.5833 34.9266C29.2644 34.3747 30.6838 33.2237 31.5709 31.6927C32.458 30.1618 32.7509 28.358 32.3937 26.625H38.6092C38.4036 27.6376 38.4124 28.6821 38.6352 29.6911C38.8579 30.7001 39.2897 31.6512 39.9025 32.4832C40.5153 33.3151 41.2957 34.0094 42.1933 34.5213C43.0909 35.0332 44.0858 35.3513 45.1139 35.4551C46.1419 35.559 47.1803 35.4462 48.1622 35.1242C49.144 34.8022 50.0474 34.2779 50.8143 33.5854C51.5811 32.8928 52.1943 32.0472 52.6143 31.1031C53.0344 30.1591 53.249 29.1375 53.25 28.1042ZM59.1667 14.7917H50.2917V5.91667C50.2917 4.34747 49.6683 2.84254 48.5587 1.73295C47.4491 0.623361 45.9442 0 44.375 0L26.625 0C25.0558 0 23.5509 0.623361 22.4413 1.73295C21.3317 2.84254 20.7083 4.34747 20.7083 5.91667V14.7917H11.8333V17.75H59.1667V14.7917ZM14.7917 50.2917H11.8333C8.69494 50.2917 5.68508 51.5384 3.4659 53.7576C1.24672 55.9767 0 58.9866 0 62.125L0 71H23.6667L20.7083 68.0417L26.625 62.125L14.7917 50.2917ZM59.1667 50.2917H56.2083L44.375 62.125L50.2917 68.0417L47.3333 71H71V62.125C71 58.9866 69.7533 55.9767 67.5341 53.7576C65.3149 51.5384 62.3051 50.2917 59.1667 50.2917ZM32.5417 59.1667H38.4583V71H32.5417V59.1667ZM35.5 53.25L32.5417 59.1667H38.4583L35.5 53.25Z" fill="white"/>
</svg>
