<svg width="83" height="83" viewBox="0 0 83 83" fill="none" xmlns="http://www.w3.org/2000/svg">
<path fill-rule="evenodd" clip-rule="evenodd" d="M41.5 0C30.4935 0 19.9378 4.37231 12.1551 12.1551C4.37231 19.9378 0 30.4935 0 41.5C0 52.5065 4.37231 63.0622 12.1551 70.8449C19.9378 78.6277 30.4935 83 41.5 83C52.5065 83 63.0622 78.6277 70.8449 70.8449C78.6277 63.0622 83 52.5065 83 41.5C83 30.4935 78.6277 19.9378 70.8449 12.1551C63.0622 4.37231 52.5065 0 41.5 0ZM19.8192 48.7506C19.8192 48.3576 19.9754 47.9806 20.2533 47.7026C20.5313 47.4247 20.9083 47.2685 21.3014 47.2685H61.5089C61.902 47.2685 62.279 47.4247 62.557 47.7026C62.8349 47.9806 62.9911 48.3576 62.9911 48.7506C62.9911 52.0232 61.3904 56.6771 57.9399 60.507C54.4421 64.3961 49.0234 67.4612 41.3992 67.4612C33.7869 67.4612 28.3682 64.3961 24.8644 60.507C21.4199 56.6771 19.8251 52.0291 19.8251 48.7506H19.8192ZM27.1647 35.4291C25.5538 35.4276 24.0096 34.7861 22.8716 33.646C22.3082 33.0814 21.8614 32.4114 21.5569 31.6742C21.2524 30.937 21.096 30.147 21.0968 29.3494C21.0976 28.5518 21.2555 27.7621 21.5614 27.0255C21.8674 26.2889 22.3154 25.6197 22.88 25.0563C24.0202 23.9183 25.5657 23.2799 27.1766 23.2815H27.1944C28.8052 23.2839 30.3492 23.926 31.4866 25.0668C32.624 26.2075 33.2616 27.7533 33.2593 29.3642C33.2569 30.9751 32.6147 32.5191 31.474 33.6564C30.3333 34.7938 28.7874 35.4315 27.1766 35.4291H27.1647ZM55.8056 35.4291C54.1948 35.4268 52.6508 34.7846 51.5134 33.6439C50.376 32.5031 49.7384 30.9573 49.7407 29.3464C49.7431 27.7355 50.3853 26.1916 51.526 25.0542C52.6667 23.9168 54.2126 23.2791 55.8234 23.2815H55.8353C57.4462 23.2831 58.9904 23.9245 60.1284 25.0647C61.2663 26.2048 61.9047 27.7504 61.9032 29.3612C61.9016 30.9721 61.2602 32.5164 60.12 33.6544C58.9798 34.7923 57.4343 35.4307 55.8234 35.4291H55.8056Z" fill="white"/>
</svg>
